<svg xmlns="http://www.w3.org/2000/svg" xml:space="preserve" width="133.30701" height="141.588" x="0px" y="0px" viewBox="0 0 133.30701 141.588"><g fill="#fff"><path d="m66.657 64.782 18.609 9.481v32.189l13.158-6.705V67.482L80.284 58.1l18.14-9.509V9.719l-13.158 4.879v27.027l-37.22 18.962-.003-45.991-13.161-4.874v90.025l13.164 6.705V74.263z"/><path d="m133.307 18.668-22.433-.965v86.602l-39.209 19.967c1.18-14.623 2.484-28.725 2.961-41.548l-16.179-8.243c.306 15.257 1.764 32 3.199 49.791l-39.209-19.967V17.703L0 18.668c13.979 15.567 14.608 47.964 6.989 92.749 34.619 6.986 59.666 30.171 59.666 30.171s25.045-23.185 59.665-30.171c-7.621-44.785-6.992-77.182 6.987-92.749"/><path d="M73.521 36.569C72.256 24.334 70.077 12.298 66.657 0c-4.1 14.743-6.42 29.109-7.51 43.892z"/></g></svg>