<svg xmlns="http://www.w3.org/2000/svg" width="228.68193mm" height="215.76274mm" viewBox="0 0 228.68193 215.76274"><g style="stroke-width:.388065"><path d="m0 0-128.396-.406c-65.483-.201-79.709-60.562-80.372-62.986-.722-2.421-2.774-12.213-2.923-12.921-.2-.696.055-1.03.691-.353l9.058 9.657c.192.25 23.915 25.269 60.243 25.365l103.691.317c3.946.019 6.853-1.047 8.564-3.288 3.405-4.43 1.378-12.261-.68-20.587-.513-2.015-22.939-105.482-22.939-105.482-8.432-33.748-46.714-33.863-59.337-33.894l-3.613-.026S-88.072-73.667-87.986-73.093c.101.581-.442.847-1.003.78-.542-.052-4.138-.443-4.138-.443-29.447-3.269-56.596-27.496-63.111-56.37l-17.446-75.627c-7.149.045-14.979.218-21.656.904-4.027.42-16.551 2.583-17.488 2.746-.905.187-1.205-.272-.713-.974.487-.728 3.983-6.166 3.983-6.166 11.5-16.869 30.077-26.915 53.073-28.122 22.969-1.237 39.914-.617 56.432-.867 47.999-.641 93.379-.436 106.574 55.42L36.573-47.048c2.883 12.736.557 24.678-6.484 33.58C23.285-4.855 12.385.043 0 0" style="fill:#1d467d;fill-opacity:1;fill-rule:nonzero;stroke:none;stroke-width:.388065" transform="matrix(.90907 0 0 -.90907 194.337 0)"/></g></svg>