<svg xmlns="http://www.w3.org/2000/svg" width="512" height="512" viewBox="0 0 135.46666 135.46667"><defs><linearGradient id="a" x1="7.3094187" x2="7.3094187" y1="10.192285" y2="2.5053215" gradientTransform="scale(.60511 1.6526)" gradientUnits="userSpaceOnUse"><stop offset="0%" stop-color="#00de7b"/><stop offset="100%" stop-color="#00ba6e"/></linearGradient></defs><g fill="none"><path fill="url(#a)" d="M1.809 4.388h5.228v14.278H1.809z" transform="translate(-3.844 -12.081) scale(6.94825)"/><path fill="#00de7b" d="M123.886 58.388a17.523 17.523 0 0 1-5.628 24.388L36.42 132.79a18.232 18.232 0 0 1-24.875-5.74 17.523 17.523 0 0 1 5.628-24.388l81.837-50.02a18.232 18.232 0 0 1 24.875 5.746z"/><path fill="#00de7b" d="M11.435 8.444a18.267 18.267 0 0 1 24.91-5.774l82.024 50.027a17.551 17.551 0 0 1 5.662 24.416 18.267 18.267 0 0 1-24.909 5.774L17.098 32.86a17.551 17.551 0 0 1-5.663-24.416z"/></g></svg>