<svg xmlns="http://www.w3.org/2000/svg" viewBox="0 0 1345.77222 1257.79274"><path d="M1079.918 0H0l106.897 202.317v66.616h.01c0 .328-.012.653-.012.98V987.88c0 149.07 119.027 269.914 265.854 269.914h707.169c146.827 0 265.854-120.845 265.854-269.914V269.914C1345.772 120.844 1226.745 0 1079.918 0Z" style="fill:#ef3e43"/><path d="M350.038 314.005h99.572v570.662h-99.572V314.005ZM933.845 884.667V510.475c0-68.479-33.19-108.425-114.04-108.425h-154.89v482.617h-99.572V314.005H815.55c137.017 0 217.867 53.805 217.867 163.862v406.8h-99.572Z" style="fill:#fff"/></svg>